<?xml version="1.0" encoding="utf-8"?>
<!-- Generator: Adobe Illustrator 26.5.0, SVG Export Plug-In . SVG Version: 6.00 Build 0)  -->
<svg version="1.1" id="Capa_1" xmlns="http://www.w3.org/2000/svg" xmlns:xlink="http://www.w3.org/1999/xlink" x="0px" y="0px"
	 viewBox="0 0 1920 1080" style="enable-background:new 0 0 1920 1080;" xml:space="preserve">
<style type="text/css">
	.st0{fill:#FFFFFF;stroke:#000000;stroke-width:3;stroke-miterlimit:10;}
	.st1{fill:#1A1A1A;}
	.st2{fill:none;stroke:#000000;stroke-width:3;stroke-miterlimit:10;}
	.st3{fill:#333333;}
</style>
<path class="st0" d="M1919.86,1040.07"/>
<path class="st0" d="M0.36,1040.07"/>
<path class="st0" d="M0.36,1040.07"/>
<path class="st0" d="M0.36,1080.07"/>
<path class="st0" d="M39.86,1080.07"/>
<path class="st0" d="M39.86,0.07"/>
<path class="st0" d="M39.86,0.07"/>
<path class="st0" d="M-0.14,0.07"/>
<path class="st0" d="M1879.86,1080.57"/>
<path class="st0" d="M1879.36,1080.07"/>
<path class="st0" d="M1879.36,0.07"/>
<path class="st0" d="M1919.23,39.57"/>
<path class="st0" d="M-0.27,39.57"/>
<path class="st0" d="M0.36,0.07"/>
<path class="st0" d="M0.36,40.07"/>
<path class="st1" d="M179.36,689.57h-55c-27.61,0-50-22.39-50-50v-531c0-27.61,22.39-50,50-50h55c27.61,0,50,22.39,50,50v531
	C229.36,667.19,206.97,689.57,179.36,689.57z"/>
<path class="st2" d="M1202.36,58.57"/>
<path class="st2" d="M1685.37,58.57"/>
<path class="st3" d="M1735.36,58.57h68c27.61,0,50,22.39,50,50v531.1c0,27.58-22.33,49.95-49.9,50l-937.54,1.81
	c-27.58,0.05-49.9,22.42-49.9,50v228.1c0,27.61-22.39,50-50,50H308.36c-27.61,0-50-22.39-50-50v-861c0-27.61,22.39-50,50-50h849.59
	c27.77,0,50.22,22.63,50,50.41l-0.18,22.4c-0.23,27.69,22.1,50.29,49.79,50.41l377.59,1.58c27.7,0.12,50.21-22.3,50.21-50v-24.79
	C1685.36,80.96,1707.75,58.57,1735.36,58.57z"/>
<path class="st1" d="M179.36,1019.57h-55c-27.61,0-50-22.39-50-50v-199c0-27.61,22.39-50,50-50h55c27.61,0,50,22.39,50,50v199
	C229.36,997.19,206.97,1019.57,179.36,1019.57z"/>
<path class="st1" d="M838.36,969.57v-204c0-27.61,22.39-50,50-50h915c27.61,0,50,22.39,50,50v204c0,27.61-22.39,50-50,50h-915
	C860.75,1019.57,838.36,997.19,838.36,969.57z"/>
<path class="st1" d="M1283.86,58.57h322c27.61,0,50,22.39,50,50v5.31c0,27.61-22.39,50-50,50h-322c-27.61,0-50-22.39-50-50v-5.31
	C1233.86,80.96,1256.25,58.57,1283.86,58.57z"/>
</svg>
