<?xml version="1.0" encoding="UTF-8" standalone="no"?><!DOCTYPE svg PUBLIC "-//W3C//DTD SVG 1.1//EN" "http://www.w3.org/Graphics/SVG/1.1/DTD/svg11.dtd"><svg width="100%" height="100%" viewBox="0 0 8000 4500" version="1.1" xmlns="http://www.w3.org/2000/svg" xmlns:xlink="http://www.w3.org/1999/xlink" xml:space="preserve" xmlns:serif="http://www.serif.com/" style="fill-rule:evenodd;clip-rule:evenodd;stroke-linejoin:round;stroke-miterlimit:2;">
<path d="M1271.353,374.816c0.102,-114.987 93.346,-208.149 208.333,-208.149c643.72,0 2597.553,0 3241.523,0c115.059,0 208.333,93.274 208.333,208.333c-0,69.867 -0,147.714 -0,217.441c-0,114.345 92.162,207.32 206.502,208.325c318.706,2.801 927.096,8.149 1248.005,10.969c55.569,0.488 109.029,-21.244 148.496,-60.365c39.467,-39.121 61.668,-92.389 61.668,-147.96c0,-73.231 0,-155.329 -0,-228.411c0,-115.059 93.274,-208.333 208.333,-208.333c228.71,0 593.743,0 822.453,0c115.059,0 208.333,93.274 208.333,208.333c0,523.931 0,1891.85 0,2415.781c-0,115.059 -93.274,208.333 -208.333,208.333c-712.319,-0 -3045.993,-0 -3758.311,-0c-55.253,0 -108.244,21.949 -147.314,61.019c-39.07,39.07 -61.019,92.06 -61.019,147.314c-0,250.197 -0,667.355 -0,917.552c0,55.253 -21.949,108.244 -61.019,147.314c-39.07,39.07 -92.06,61.019 -147.314,61.019c-452.534,-0 -1520.949,-0 -1973.65,-0c-55.285,0 -108.304,-21.975 -147.379,-61.085c-39.075,-39.11 -61.003,-92.148 -60.954,-147.433c0.629,-711.532 2.686,-3039.026 3.314,-3750Z" style="fill-opacity:0.53;"/>
<path d="M6329.605,166.667c115.059,0 208.333,93.274 208.333,208.333c-0,52.854 -0,109.636 -0,162.49c0,115.059 -93.274,208.333 -208.333,208.333c-298.298,0 -843.933,0 -1142.231,0c-115.059,-0 -208.333,-93.274 -208.333,-208.333c0,-52.854 0,-109.636 0,-162.49c-0,-115.059 93.274,-208.333 208.333,-208.333c298.298,-0 843.933,-0 1142.231,-0Z" style="fill-opacity:0.82;"/>
<path d="M7625,3086.739c55.253,-0 108.244,21.949 147.314,61.019c39.07,39.07 61.019,92.061 61.019,147.314c0,230.426 0,599.502 0,829.928c0,55.253 -21.949,108.244 -61.019,147.314c-39.07,39.07 -92.061,61.019 -147.314,61.019c-700.373,-0 -2965.24,-0 -3665.612,-0c-55.253,0 -108.244,-21.949 -147.314,-61.019c-39.07,-39.07 -61.019,-92.061 -61.019,-147.314c-0,-230.426 -0,-599.502 -0,-829.928c-0,-55.253 21.949,-108.244 61.019,-147.314c39.07,-39.07 92.061,-61.019 147.314,-61.019c700.373,0 2965.24,0 3665.612,0Z" style="fill-opacity:0.82;"/>
<path d="M166.667,375c-0,-55.253 21.949,-108.244 61.019,-147.314c39.07,-39.07 92.06,-61.019 147.314,-61.019l591.039,0c55.253,-0 108.244,21.949 147.314,61.019c39.07,39.07 61.019,92.06 61.019,147.314l-0,3750c0,55.253 -21.949,108.244 -61.019,147.314c-39.07,39.07 -92.06,61.019 -147.314,61.019l-591.039,0c-55.253,0 -108.244,-21.949 -147.314,-61.019c-39.07,-39.07 -61.019,-92.06 -61.019,-147.314l0,-3750Z" style="fill-opacity:0.82;"/></svg>